<svg width="66" height="70" viewBox="0 0 66 70" fill="none" xmlns="http://www.w3.org/2000/svg">
<path fill-rule="evenodd" clip-rule="evenodd" d="M57 46C57 51.5228 52.5228 56 47 56C45.5066 56 44.0896 55.6726 42.817 55.0857C42.9371 55.7053 43 56.3453 43 57C43 62.5228 38.5228 67 33 67C29.0418 67 25.6207 64.7003 24 61.3641C22.3793 64.7003 18.9582 67 15 67C9.47715 67 5 62.5228 5 57C5 51.4772 9.47715 47 15 47C15.6966 47 16.3765 47.0712 17.0329 47.2068C17.0111 46.9741 17 46.7383 17 46.5C17 42.3579 20.3579 39 24.5 39C27.5029 39 30.0935 40.7648 31.2915 43.3137C31.9834 41.382 33.8303 40 36 40C36.9222 40 37.7861 40.2497 38.5278 40.6851C40.2971 37.8706 43.4301 36 47 36C52.5228 36 57 40.4772 57 46Z" fill="white" fill-opacity="0.5"/>
<circle cx="56" cy="49" r="10" fill="white"/>
<circle cx="31" cy="54" r="5" fill="white"/>
<circle cx="42" cy="60" r="10" fill="white"/>
<circle cx="24" cy="60" r="10" fill="white"/>
<circle cx="41.5" cy="49.5" r="7.5" fill="white"/>
<path d="M17.5 7C17.5 8.38074 16.3807 9.5 15 9.5C16.3807 9.5 17.5 10.6193 17.5 12C17.5 10.6193 18.6193 9.5 20 9.5C18.6193 9.5 17.5 8.38074 17.5 7Z" fill="white"/>
<path d="M12 13C12 13.5523 11.5523 14 11 14C11.5523 14 12 14.4477 12 15C12 14.4477 12.4477 14 13 14C12.4477 14 12 13.5523 12 13Z" fill="white"/>
<path d="M19 19C19 19.5523 18.5523 20 18 20C18.5523 20 19 20.4477 19 21C19 20.4477 19.4477 20 20 20C19.4477 20 19 19.5523 19 19Z" fill="white"/>
<path d="M7 20C7 21.1046 6.10459 22 5 22C6.10459 22 7 22.8954 7 24C7 22.8954 7.89541 22 9 22C7.89541 22 7 21.1046 7 20Z" fill="white"/>
<path d="M26.5 12C26.5 12.8284 25.8284 13.5 25 13.5C25.8284 13.5 26.5 14.1716 26.5 15C26.5 14.1716 27.1716 13.5 28 13.5C27.1716 13.5 26.5 12.8284 26.5 12Z" fill="white"/>
<path d="M23 1C23 2.10459 22.1046 3 21 3C22.1046 3 23 3.89541 23 5C23 3.89541 23.8954 3 25 3C23.8954 3 23 2.10459 23 1Z" fill="white"/>
<path d="M9.5 0C9.5 0.828442 8.82844 1.5 8 1.5C8.82844 1.5 9.5 2.17156 9.5 3C9.5 2.17156 10.1716 1.5 11 1.5C10.1716 1.5 9.5 0.828442 9.5 0Z" fill="white"/>
<path d="M3 10C3 11.6569 1.65688 13 0 13C1.65688 13 3 14.3431 3 16C3 14.3431 4.34312 13 6 13C4.34312 13 3 11.6569 3 10Z" fill="white"/>
</svg>
